<svg width="96" height="34" viewBox="0 0 96 34" fill="none" xmlns="http://www.w3.org/2000/svg">
<path d="M42.0763 22.7838C41.8721 22.615 41.6559 22.4703 41.4276 22.3497C41.9081 22.1687 42.3405 21.9275 42.7129 21.6381C43.0853 21.3486 43.3976 21.0229 43.6619 20.6611C43.9141 20.2993 44.1063 19.8892 44.2384 19.4671C44.3706 19.0329 44.4306 18.5746 44.4306 18.0921C44.4306 17.4529 44.3225 16.8619 44.1063 16.3191C43.8901 15.7764 43.5417 15.306 43.0613 14.908C42.5808 14.51 41.9562 14.1964 41.1994 13.9793C40.4426 13.7622 39.5177 13.6416 38.4366 13.6416H33.5718V28.6334H37.0312V23.0854H37.9081C38.1724 23.0854 38.3766 23.1216 38.5327 23.206C38.6769 23.2904 38.809 23.4231 38.9171 23.6161L41.4036 27.9701C41.6559 28.4043 42.0763 28.6334 42.6529 28.6334H45.788L42.6048 23.411C42.4607 23.1577 42.2805 22.9527 42.0763 22.7838ZM40.9111 19.262C40.815 19.5515 40.6589 19.7927 40.4547 20.0098C40.2384 20.2269 39.9742 20.3837 39.6378 20.5043C39.3015 20.6249 38.9051 20.6852 38.4366 20.6852H37.0432V16.2347H38.4366C39.3375 16.2347 39.9982 16.4156 40.4186 16.7895C40.8511 17.1634 41.0553 17.67 41.0553 18.3333C41.0553 18.659 41.0072 18.9726 40.9111 19.262Z" fill="white"/>
<path d="M53.4514 25.6172C53.1631 25.8705 52.8628 26.0756 52.5625 26.2203C52.2622 26.365 51.9378 26.4374 51.5895 26.4374C51.121 26.4374 50.7727 26.2926 50.5324 26.0152C50.2922 25.7258 50.1721 25.3278 50.1721 24.8091V18.1394H46.9889V24.8091C46.9889 25.3881 47.073 25.9188 47.2291 26.4133C47.3853 26.8957 47.6135 27.3178 47.9258 27.6797C48.2381 28.0415 48.6105 28.3189 49.055 28.5119C49.4994 28.7169 50.0159 28.8134 50.5925 28.8134C50.9288 28.8134 51.2532 28.7772 51.5414 28.7169C51.8297 28.6566 52.094 28.5601 52.3462 28.4516C52.5985 28.343 52.8267 28.2104 53.0429 28.0415C53.2592 27.8847 53.4754 27.7038 53.6796 27.5108V27.6917C53.6796 28.1259 53.9799 28.4998 54.3763 28.6084C54.3883 28.6084 54.3883 28.6084 54.4003 28.6204C54.4243 28.6325 54.4604 28.6325 54.4844 28.6325C54.4964 28.6325 54.5084 28.6325 54.5204 28.6325H54.5324C54.5685 28.6325 54.6165 28.6445 54.6526 28.6445H56.6225V27.6917V25.5087V18.1394H53.4514V25.6172Z" fill="white"/>
<path d="M68.143 19.3579C67.8067 18.8996 67.3982 18.5619 66.9178 18.3206C66.4493 18.0794 65.9328 17.9709 65.3802 17.9709C64.7076 17.9709 64.119 18.0915 63.6145 18.3206C63.11 18.5498 62.6655 18.8634 62.2691 19.2493V13.6289H59.0859V24.5562V28.6328H60.5394C60.5514 28.6328 60.5754 28.6328 60.5874 28.6328H61.0919C61.6085 28.6328 62.0289 28.2107 62.0289 27.692V27.5714L62.0769 27.5473C62.2451 27.7282 62.4133 27.8971 62.5814 28.0539C62.7616 28.2107 62.9418 28.3433 63.158 28.4519C63.3622 28.5604 63.5904 28.6449 63.8427 28.7052C64.0949 28.7655 64.3712 28.8017 64.6835 28.8017C65.3562 28.8017 65.9808 28.669 66.5334 28.3916C67.0859 28.1142 67.5664 27.7282 67.9628 27.2337C68.3592 26.7392 68.6715 26.1603 68.8997 25.4969C69.116 24.8336 69.2361 24.0979 69.2361 23.3139C69.2361 22.4696 69.14 21.7218 68.9478 21.0585C68.7556 20.371 68.4793 19.8162 68.143 19.3579ZM65.8006 24.7733C65.6925 25.1834 65.5604 25.509 65.3802 25.7623C65.2 26.0156 64.9838 26.1965 64.7436 26.3171C64.5034 26.4377 64.2271 26.4859 63.9388 26.4859C63.6265 26.4859 63.3382 26.4377 63.0619 26.3291C62.7856 26.2206 62.5214 26.0397 62.2811 25.7743V21.3238C62.4133 21.167 62.5574 21.0223 62.6895 20.8896C62.8217 20.769 62.9778 20.6605 63.134 20.576C63.2901 20.4916 63.4703 20.4313 63.6625 20.3831C63.8547 20.3348 64.0589 20.3228 64.2871 20.3228C64.5394 20.3228 64.7676 20.371 64.9718 20.4796C65.176 20.576 65.3562 20.7449 65.5003 20.9861C65.6445 21.2153 65.7646 21.5289 65.8487 21.9028C65.9328 22.2767 65.9688 22.747 65.9688 23.3018C65.9568 23.8687 65.9088 24.3632 65.8006 24.7733Z" fill="white"/>
<path d="M74.2691 18.1279H71.0859V28.6331H74.2691V18.1279Z" fill="white"/>
<path d="M74.2691 13.6289H71.0859V16.62H74.2691V13.6289Z" fill="white"/>
<path d="M83.0719 25.6172C82.7837 25.8705 82.4834 26.0756 82.1831 26.2203C81.8828 26.365 81.5584 26.4374 81.2101 26.4374C80.7416 26.4374 80.3933 26.2926 80.153 26.0152C79.9128 25.7258 79.7927 25.3278 79.7927 24.8091V18.1394H76.6095V24.8091C76.6095 25.3881 76.6936 25.9188 76.8497 26.4133C77.0059 26.8957 77.2341 27.3178 77.5464 27.6797C77.8587 28.0415 78.2311 28.3189 78.6756 28.5119C79.12 28.7169 79.6365 28.8134 80.2131 28.8134C80.5494 28.8134 80.8738 28.7772 81.162 28.7169C81.4503 28.6566 81.7146 28.5601 81.9669 28.4516C82.2191 28.343 82.4473 28.2104 82.6635 28.0415C82.8798 27.8847 83.096 27.7038 83.3002 27.5108V27.6917C83.3002 28.1259 83.6005 28.4998 83.9969 28.6084C84.0089 28.6084 84.0089 28.6084 84.0209 28.6204C84.0449 28.6325 84.081 28.6325 84.105 28.6325C84.117 28.6325 84.129 28.6325 84.141 28.6325H84.153C84.1891 28.6325 84.2371 28.6445 84.2731 28.6445H86.2431V27.6917V25.5087V18.1394H83.0599V25.6172H83.0719Z" fill="white"/>
<path d="M95.7819 24.1217C95.6378 23.8201 95.4576 23.5548 95.2174 23.3498C94.9771 23.1447 94.7249 22.9638 94.4246 22.807C94.1363 22.6623 93.824 22.5296 93.5237 22.4331C93.2113 22.3246 92.911 22.2281 92.6228 22.1437C92.3345 22.0592 92.0702 21.9628 91.83 21.8663C91.6017 21.7698 91.4095 21.6612 91.2654 21.5286C91.1213 21.3959 91.0492 21.2391 91.0492 21.0461C91.0492 20.7808 91.1573 20.5637 91.3735 20.4189C91.5897 20.2621 91.902 20.1898 92.2984 20.1898C92.5747 20.1898 92.827 20.226 93.0432 20.2863C93.2594 20.3466 93.4636 20.4189 93.6318 20.4913C93.8119 20.5637 93.9681 20.636 94.1243 20.6963C94.2804 20.7567 94.4246 20.7928 94.5807 20.7928C94.7249 20.7928 94.845 20.7687 94.9291 20.7084C95.0252 20.6602 95.1092 20.5637 95.1933 20.431L95.9141 19.3214C95.7099 19.1284 95.4816 18.9475 95.2294 18.7786C94.9651 18.6098 94.6768 18.4651 94.3645 18.3444C94.0522 18.2238 93.7159 18.1274 93.3555 18.055C92.9951 17.9826 92.6228 17.9585 92.2384 17.9585C91.5297 17.9585 90.917 18.0429 90.3885 18.2238C89.86 18.4048 89.4276 18.646 89.0792 18.9475C88.7309 19.249 88.4666 19.5988 88.2984 20.0089C88.1182 20.4069 88.0342 20.829 88.0342 21.2753C88.0342 21.7577 88.1062 22.1678 88.2504 22.5055C88.3945 22.8432 88.5867 23.1327 88.8149 23.3618C89.0432 23.591 89.3074 23.784 89.6077 23.9408C89.908 24.0975 90.2083 24.2182 90.5206 24.3267C90.833 24.4353 91.1333 24.5317 91.4336 24.6162C91.7339 24.7006 91.9981 24.7971 92.2264 24.8936C92.4546 24.9901 92.6468 25.1107 92.7909 25.2433C92.9351 25.376 93.0071 25.5449 93.0071 25.762C93.0071 25.8826 92.9831 25.9911 92.9351 26.0997C92.887 26.2082 92.8149 26.3047 92.7068 26.3891C92.5987 26.4736 92.4666 26.5459 92.2984 26.5942C92.1303 26.6424 91.9141 26.6665 91.6738 26.6665C91.3255 26.6665 91.0372 26.6304 90.8089 26.5459C90.5807 26.4615 90.3765 26.3771 90.2083 26.2806C90.0402 26.1841 89.884 26.0997 89.7279 26.0152C89.5837 25.9308 89.4155 25.8946 89.2354 25.8946C89.0312 25.8946 88.875 25.9308 88.7549 26.0152C88.6348 26.0876 88.5267 26.1962 88.4426 26.3288L87.7098 27.4867C87.914 27.6676 88.1663 27.8365 88.4426 27.9933C88.7309 28.15 89.0432 28.2827 89.3795 28.4033C89.7158 28.5239 90.0642 28.6084 90.4246 28.6807C90.7849 28.7531 91.1453 28.7772 91.5056 28.7772C92.2264 28.7772 92.875 28.6928 93.4276 28.5119C93.9801 28.331 94.4486 28.0897 94.833 27.7762C95.2174 27.4626 95.4936 27.0766 95.6858 26.6424C95.878 26.2082 95.9741 25.7258 95.9741 25.2072C95.9981 24.7971 95.9261 24.4232 95.7819 24.1217Z" fill="white"/>
<path d="M7.83183 26.3411H0V33.9998H7.83183V26.3411Z" fill="#A31E22"/>
<path fill-rule="evenodd" clip-rule="evenodd" d="M4.8175 0L10.7154 1.51969C11.2079 1.6403 11.5803 2.03831 11.6884 2.53281L12.8535 7.74317L7.20789 6.47676C6.7154 6.36822 6.31901 5.98226 6.19889 5.48776L4.8175 0Z" fill="#288349"/>
<path d="M16.7806 26.3411H8.94873V33.9998H16.7806V26.3411Z" fill="#A31E22"/>
<path d="M25.7287 26.3411H17.8969V33.9998H25.7287V26.3411Z" fill="#A31E22"/>
<path d="M7.83183 17.585H0V25.2437H7.83183V17.585Z" fill="#A31E22"/>
<path d="M16.7806 17.585H8.94873V25.2437H16.7806V17.585Z" fill="#A31E22"/>
<path d="M25.7287 17.585H17.8969V25.2437H25.7287V17.585Z" fill="#A31E22"/>
<path d="M7.83183 8.82861H0V16.4874H7.83183V8.82861Z" fill="#A31E22"/>
<path d="M16.7806 8.82861H8.94873V16.4874H16.7806V8.82861Z" fill="#A31E22"/>
<path d="M25.7287 8.82861H17.8969V16.4874H25.7287V8.82861Z" fill="#A31E22"/>
</svg>
