<svg xmlns="http://www.w3.org/2000/svg" viewBox="0 0 560 320" fill="none">
  <rect width="560" height="320" fill="#1a1128"/>
  <!-- Timer ring -->
  <circle cx="200" cy="150" r="90" stroke="#2a1d40" stroke-width="12" fill="none"/>
  <circle cx="200" cy="150" r="90" stroke="#8b5cf6" stroke-width="12" fill="none" stroke-dasharray="400 565" stroke-linecap="round" transform="rotate(-90 200 150)"/>
  <text x="200" y="140" text-anchor="middle" fill="#fff" font-family="system-ui" font-size="36" font-weight="bold">18:42</text>
  <text x="200" y="165" text-anchor="middle" fill="#8b5cf6" font-family="system-ui" font-size="14">Focus Time</text>
  <!-- Buttons -->
  <rect x="145" y="255" width="50" height="28" rx="14" fill="#8b5cf6"/>
  <text x="170" y="274" text-anchor="middle" fill="#fff" font-family="system-ui" font-size="11">Pause</text>
  <rect x="205" y="255" width="50" height="28" rx="14" fill="#2a1d40" stroke="#8b5cf6" stroke-width="1"/>
  <text x="230" y="274" text-anchor="middle" fill="#8b5cf6" font-family="system-ui" font-size="11">Reset</text>
  <!-- Task list -->
  <rect x="340" y="30" width="190" height="260" rx="8" fill="#221838"/>
  <text x="435" y="55" text-anchor="middle" fill="#fff" font-family="system-ui" font-size="14" font-weight="bold">Tasks</text>
  <rect x="355" y="70" width="160" height="36" rx="6" fill="#2a1d40"/>
  <circle cx="370" cy="88" r="7" stroke="#8b5cf6" stroke-width="1.5" fill="#8b5cf6"/>
  <text x="385" y="93" fill="#a0a0b0" font-family="system-ui" font-size="11" text-decoration="line-through">Design wireframes</text>
  <rect x="355" y="115" width="160" height="36" rx="6" fill="#2a1d40"/>
  <circle cx="370" cy="133" r="7" stroke="#8b5cf6" stroke-width="1.5" fill="none"/>
  <text x="385" y="138" fill="#fff" font-family="system-ui" font-size="11">Build API endpoints</text>
  <rect x="355" y="160" width="160" height="36" rx="6" fill="#2a1d40"/>
  <circle cx="370" cy="178" r="7" stroke="#8b5cf6" stroke-width="1.5" fill="none"/>
  <text x="385" y="183" fill="#fff" font-family="system-ui" font-size="11">Write unit tests</text>
  <rect x="355" y="205" width="160" height="36" rx="6" fill="#2a1d40"/>
  <circle cx="370" cy="223" r="7" stroke="#8b5cf6" stroke-width="1.5" fill="none"/>
  <text x="385" y="228" fill="#fff" font-family="system-ui" font-size="11">Deploy to staging</text>
  <!-- Stats -->
  <text x="200" y="300" text-anchor="middle" fill="#6b6b80" font-family="system-ui" font-size="11">Sessions today: 4 · Total focus: 2h 15m</text>
</svg>
